{"title":"Siren 2010 DVDrip English Klam","uid":6881770,"size":1400947386,"categoryP":"video","categoryS":"movies","magnet":"?xt=urn:btih:85f73b4ea67795910e56b62b862c331e80108dab&amp;dn=Siren+2010+DVDrip+English+Klam&amp;tr=udp%3A%2F%2Ftracker.openbittorrent.com%3A80&amp;tr=udp%3A%2F%2Fopen.demonii.com%3A1337&amp;tr=udp%3A%2F%2Ftracker.coppersurfer.tk%3A6969&amp;tr=udp%3A%2F%2Fexodus.desync.com%3A6969","seeders":0,"leechers":2,"uploader":"Klambake","files":-1,"time":1323695182,"description":"Eoin Macken, Anna Skellern and Tereza Srbova\n\nHet koppel Ken en Rachel ontvluchten de stad voor een weekendje weg. Ze ontmoeten een oude vriend, de exotische en wereldse Marco. De problemen beginnen wanneer Marco de prachtige jonge meid Silka spot. De zwoele en verleidelijke Silka vraagt om hulp voor de kust van ÃƒÂ©ÃƒÂ©n van de afgezonderde eilanden. Maar als er iemand hulp nodig heeft zijn ze het zelf...\n\nA group of friends escaping the city for a weekend away have a simple plan, to tour the coast for a relaxing weekend...\n\n------------------------ Dutch Friends ------------------------\n---------------------------------------------------------------\n- Bezoek ook eens mijn vrienden op: &lt;a href=&quot; http://www.Film-Test.nl&quot; rel=&quot;nofollow&quot; target=&quot;_NEW&quot;&gt; http://www.Film-Test.nl&lt;/a&gt; --\n----- voor mijn Nederlandse Sync. ondertitels ---- en meer ----\n------- http://www.Film-Test.nl ---- voor Films en meer -------\n---------------------------------------------------------------\n\nGeneral:\n\nComplete name                    : Siren\\Siren.avi\nFormat                           : AVI\nFormat/Info                      : Audio Video Interleave\nFile size                        : 1.30 GiB\nDuration                         : 1h 19mn\nOverall bit rate                 : 2 338 Kbps\n\nVideo:\n\nFormat                           : MPEG-4 Visual\nFormat profile                   : Simple@L3\nFormat settings, BVOP            : No\nFormat settings, QPel            : No\nFormat settings, GMC             : No warppoints\nFormat settings, Matrix          : Default (H.263)\nCodec ID                         : XVID\nCodec ID/Hint                    : XviD\nDuration                         : 1h 19mn\nBit rate                         : 1 879 Kbps\nWidth                            : 652 pixels\nHeight                           : 352 pixels\nDisplay aspect ratio             : 1.852\nFrame rate                       : 23.976 fps\nColor space                      : YUV\nChroma subsampling               : 4:2:0\nBit depth                        : 8 bits\nScan type                        : Progressive\nCompression mode                 : Lossy\nBits/(Pixel*Frame)               : 0.341\nStream size                      : 1.05 GiB (80%)\nWriting library                  : XviD 1.1.2 (UTC 2006-11-01)\n\nAudio:\n\nFormat                           : AC-3\nFormat/Info                      : Audio Coding 3\nMode extension                   : CM (complete main)\nCodec ID                         : 2000\nDuration                         : 1h 19mn\nBit rate mode                    : Constant\nBit rate                         : 448 Kbps\nChannel(s)                       : 6 channels\nChannel positions                : Front: L C R, Side: L R, LFE\nSampling rate                    : 48.0 KHz\nBit depth                        : 16 bits\nCompression mode                 : Lossy\nStream size                      : 256 MiB (19%)\nAlignment                        : Aligned on interleaves\nInterleave, duration             : 32 ms (0.77 video frame)\nInterleave, preload duration     : 544 ms\n\n\n","torrent":{"xt":"urn:btih:85f73b4ea67795910e56b62b862c331e80108dab","amp;dn":"Siren+2010+DVDrip+English+Klam","amp;tr":["udp%3A%2F%2Ftracker.openbittorrent.com%3A80","udp%3A%2F%2Fopen.demonii.com%3A1337","udp%3A%2F%2Ftracker.coppersurfer.tk%3A6969","udp%3A%2F%2Fexodus.desync.com%3A6969"],"infoHash":"85f73b4ea67795910e56b62b862c331e80108dab","infoHashBuffer":{"type":"Buffer","data":[133,247,59,78,166,119,149,145,14,86,182,43,134,44,51,30,128,16,141,171]},"announce":[],"urlList":[]}}